<?xml version="1.0" encoding="UTF-8"?>
<!DOCTYPE svg PUBLIC "-//W3C//DTD SVG 1.1//EN" "http://www.w3.org/Graphics/SVG/1.1/DTD/svg11.dtd">
<!-- Creator: CorelDRAW 2018 (64-Bit Оценочная версия) -->
<svg xmlns="http://www.w3.org/2000/svg" xml:space="preserve" width="302px" height="56px" version="1.1" style="shape-rendering:geometricPrecision; text-rendering:geometricPrecision; image-rendering:optimizeQuality; fill-rule:evenodd; clip-rule:evenodd"
viewBox="0 0 8985 1665"
 xmlns:xlink="http://www.w3.org/1999/xlink">
 <defs>
  <style type="text/css">
   <![CDATA[
    .fil1 {fill:#1C1B17}
    .fil0 {fill:#FF7900}
    .fil2 {fill:#FF7900;fill-rule:nonzero}
   ]]>
  </style>
 </defs>
 <g id="Слой_x0020_1">
  <metadata id="CorelCorpID_0Corel-Layer"/>
  <g id="_922896714256">
   <path class="fil0" d="M1035 832l-480 -832 -93 161 401 695c37,66 59,142 59,223 0,245 -194,445 -432,445 -238,0 -432,-200 -432,-445 0,-81 21,-157 58,-223l253 -438 281 486c22,38 34,83 34,130 0,144 -116,260 -260,260 -143,0 -259,-116 -259,-260 0,-47 13,-92 35,-130l104 -181 106 181c10,18 16,39 16,61 0,67 -54,121 -121,121 -37,0 -69,-17 -91,-43 4,113 97,204 211,204 117,0 212,-95 212,-212 0,-39 -11,-75 -29,-107l-239 -413 -211 365c-33,59 -51,127 -51,200 0,221 172,399 383,399 213,0 385,-178 385,-399 0,-73 -20,-141 -53,-200l-388 -671 -360 623c-47,82 -74,176 -74,278 0,306 249,555 555,555 307,0 556,-249 556,-555 0,-102 -29,-197 -76,-278z"/>
   <path class="fil1" d="M1989 981l0 69 -573 0 0 214 391 0c172,0 240,49 240,202 0,142 -52,199 -214,199l-488 0 0 -684 644 0zm-573 615l419 0c100,0 141,-23 141,-128 0,-103 -38,-135 -148,-135l-412 0 0 263z"/>
   <path class="fil1" d="M2094 1665l355 -684 108 0 355 684 -83 0 -88 -171 -481 0 -87 171 -79 0zm611 -240l-203 -394 -203 394 406 0z"/>
   <path class="fil1" d="M3123 1052l0 451c0,121 -60,162 -155,162l-29 0 0 -69 38 0c33,0 75,-19 75,-93l0 -522 700 0 0 684 -71 0 0 -613 -558 0z"/>
   <polygon class="fil1" points="4561,981 4561,1050 4228,1050 4228,1665 4157,1665 4157,1050 3825,1050 3825,981 "/>
   <polygon class="fil1" points="4799,1243 5221,1243 5221,981 5385,981 5385,1665 5221,1665 5221,1379 4799,1379 4799,1665 4635,1665 4635,981 4799,981 "/>
   <polygon class="fil1" points="5501,981 6200,981 6200,1110 5665,1110 5665,1260 6183,1260 6183,1379 5665,1379 5665,1536 6200,1536 6200,1665 5501,1665 "/>
   <path class="fil1" d="M6934 980l0 54 210 0c170,0 250,50 250,242l0 92c0,171 -59,236 -250,236l-210 0 0 61 -163 0 0 -61 -212 0c-191,0 -247,-63 -247,-234l0 -93c0,-192 78,-243 247,-243l212 0 0 -54 163 0zm-328 190c-97,0 -131,23 -131,123l0 60c0,92 24,115 129,115l167 0 0 -298 -165 0zm328 298l169 0c104,0 127,-24 127,-116l0 -59c0,-100 -32,-123 -130,-123l-166 0 0 298z"/>
   <polygon class="fil1" points="8206,981 8206,1117 7917,1117 7917,1665 7753,1665 7753,1117 7468,1117 7468,981 "/>
   <path class="fil1" d="M8439 981l0 255 299 0c161,0 247,41 247,215 0,173 -81,214 -244,214l-466 0 0 -684 164 0zm0 548l283 0c87,0 99,-20 99,-80 0,-52 -9,-77 -93,-77l-289 0 0 157z"/>
   <path class="fil2" d="M5577 556c-22,0 -39,5 -51,17 -12,11 -19,28 -19,50l0 65c0,20 7,36 20,47 13,12 29,17 48,17l114 0c20,0 35,-3 45,-10 11,-6 18,-14 21,-22 4,-8 6,-16 6,-23l0 -5 37 0 0 4c0,19 -7,38 -22,58 -14,20 -43,30 -86,30l-116 0c-35,0 -61,-9 -78,-26 -17,-17 -26,-40 -26,-70l0 -65c0,-18 4,-35 12,-50 8,-15 20,-27 36,-36 16,-8 36,-13 59,-13l113 0 1 1c29,0 52,6 68,17 16,10 27,22 32,35 5,13 7,24 7,34l0 4 -37 0 0 -3c0,-13 -5,-25 -15,-38 -9,-12 -28,-18 -56,-18l-113 0zm561 69c0,-14 -3,-26 -9,-37 -5,-10 -13,-18 -24,-24 -10,-6 -22,-8 -37,-8l-117 0c-13,0 -25,2 -35,8 -10,6 -18,14 -23,25 -6,10 -9,22 -9,36l254 0zm-254 32l0 25c0,47 24,70 72,70l122 0c20,0 35,-4 45,-13 10,-9 15,-20 15,-33l0 -6 37 0 0 6c0,12 -3,24 -9,36 -6,12 -15,22 -29,30 -14,8 -32,12 -54,12l-126 0c-37,0 -64,-8 -83,-25 -18,-16 -27,-40 -27,-72l0 -68c0,-16 4,-31 13,-46 8,-14 21,-26 38,-35 16,-9 36,-14 58,-14l109 0c35,0 62,9 81,26 19,18 29,39 29,65l0 42 -291 0zm507 126l-37 0 0 -226 -141 0 0 -32 178 0 141 0 0 32 -141 0 0 226zm504 -97c0,-19 -6,-34 -20,-44 -13,-11 -33,-17 -60,-17l-200 0 0 -100 -38 0 0 258 232 0c57,0 86,-22 86,-66l0 -31zm-280 -29l186 0c23,0 38,3 45,9 8,6 12,15 12,28l0 19c0,12 -4,22 -13,29 -8,6 -23,9 -44,9l-186 0 0 -94zm510 126l-42 0 188 -362 57 0 187 362 -43 0 -47 -91 -254 0 -46 91zm67 -127l214 0 -107 -209 -107 209zm349 25l38 0c0,23 7,40 21,50 14,11 38,16 72,16l158 0c25,0 44,-2 58,-6 14,-4 24,-11 30,-22 6,-10 9,-25 9,-44 0,-40 -21,-61 -61,-61l-224 0 0 -36 213 0c17,0 30,-2 39,-5 9,-3 15,-8 19,-16 4,-8 6,-19 6,-33 0,-18 -3,-32 -8,-42 -6,-10 -15,-17 -29,-22 -13,-4 -32,-6 -57,-6l-153 0c-23,0 -41,2 -55,8 -14,5 -24,12 -29,22 -6,10 -9,22 -9,36l-38 0c0,-69 44,-103 132,-103l153 0c30,0 55,4 74,13 20,8 34,20 43,35 9,15 13,33 13,54 0,24 -3,41 -11,52 -8,12 -18,19 -32,23 18,6 31,16 39,30 8,14 12,34 12,60 0,23 -4,43 -13,57 -9,15 -23,26 -43,32 -19,7 -45,11 -77,11l-158 0c-24,0 -44,-2 -61,-7 -17,-4 -30,-11 -41,-19 -10,-9 -17,-19 -22,-32 -5,-13 -8,-28 -8,-45zm767 103l-158 0c-33,0 -59,-4 -78,-13 -19,-8 -33,-22 -42,-40 -8,-19 -13,-44 -14,-77l0 -105c1,-32 6,-57 14,-77 9,-19 23,-33 42,-42 20,-8 46,-13 78,-13l158 0c88,0 131,34 131,103l-37 0c0,-14 -3,-26 -9,-36 -6,-10 -15,-17 -29,-22 -14,-6 -32,-8 -55,-8l-159 0c-25,0 -44,2 -58,8 -14,6 -23,16 -29,29 -6,14 -9,33 -9,58l0 106c0,18 2,33 5,45 3,12 9,21 16,28 8,7 17,12 29,15 13,3 28,4 46,4l159 0c33,0 57,-5 72,-16 14,-10 21,-27 21,-50l37 0c0,23 -4,42 -13,57 -8,15 -23,27 -42,34 -19,8 -45,12 -76,12z"/>
  </g>
 </g>
</svg>
